<?xml version="1.0" encoding="UTF-8"?> <svg xmlns="http://www.w3.org/2000/svg" width="154" height="28" viewBox="0 0 154 28" fill="none"><path d="M37.444 0.899998H41.624V27.5H37.444V0.899998ZM56.9977 20.28C56.8963 19.1653 56.4403 18.266 55.6297 17.582C54.819 16.8727 53.869 16.518 52.7797 16.518C52.1717 16.518 51.6143 16.632 51.1077 16.86C50.601 17.088 50.1577 17.4047 49.7777 17.81C49.423 18.19 49.1443 18.646 48.9417 19.178C48.739 19.71 48.6377 20.2673 48.6377 20.85C48.6377 21.4327 48.739 21.99 48.9417 22.522C49.1443 23.054 49.423 23.5227 49.7777 23.928C50.1577 24.308 50.601 24.6247 51.1077 24.878C51.6143 25.106 52.1717 25.22 52.7797 25.22C53.8943 25.22 54.8443 24.878 55.6297 24.194C56.4403 23.4847 56.8963 22.56 56.9977 21.42V20.28ZM61.1777 27.5H57.0357L56.9977 25.068C56.415 25.8787 55.6803 26.5247 54.7937 27.006C53.907 27.4873 52.8937 27.728 51.7537 27.728C50.6897 27.728 49.7143 27.5507 48.8277 27.196C47.941 26.8413 47.1683 26.36 46.5097 25.752C45.8763 25.1187 45.3697 24.3967 44.9897 23.586C44.635 22.75 44.4577 21.876 44.4577 20.964C44.4577 20.052 44.635 19.1907 44.9897 18.38C45.3697 17.544 45.8763 16.822 46.5097 16.214C47.1683 15.5807 47.941 15.0867 48.8277 14.732C49.7397 14.3773 50.7277 14.2 51.7917 14.2C52.881 14.2 53.8563 14.428 54.7177 14.884C55.6043 15.34 56.3263 15.9353 56.8837 16.67C56.757 14.7953 56.225 13.44 55.2877 12.604C54.3503 11.7427 53.1343 11.312 51.6397 11.312C50.677 11.312 49.8157 11.4513 49.0557 11.73C48.2957 11.9833 47.637 12.3 47.0797 12.68C46.5223 13.06 46.0537 13.4527 45.6737 13.858C45.2937 14.238 44.9897 14.5547 44.7617 14.808L44.7997 10.97C44.977 10.8433 45.2683 10.628 45.6737 10.324C46.079 9.99467 46.5983 9.66533 47.2317 9.336C47.865 9.00667 48.6123 8.71533 49.4737 8.462C50.335 8.18333 51.3103 8.044 52.3997 8.044C53.5397 8.044 54.6417 8.20867 55.7057 8.538C56.7697 8.86733 57.707 9.39933 58.5177 10.134C59.3283 10.8687 59.9743 11.8187 60.4557 12.984C60.937 14.1493 61.1777 15.568 61.1777 17.24V27.5ZM68.1934 18.076C68.1934 18.9373 68.3454 19.7607 68.6494 20.546C68.9788 21.306 69.4094 21.9773 69.9414 22.56C70.4988 23.1427 71.1574 23.6113 71.9174 23.966C72.6774 24.2953 73.4881 24.46 74.3494 24.46C75.2614 24.46 76.0721 24.2953 76.7814 23.966C77.4908 23.6113 78.0988 23.1427 78.6054 22.56C79.1121 21.952 79.4921 21.268 79.7454 20.508C80.0241 19.748 80.1634 18.95 80.1634 18.114C80.1634 17.2273 80.0241 16.3913 79.7454 15.606C79.4668 14.8207 79.0741 14.1367 78.5674 13.554C78.0608 12.9713 77.4401 12.5027 76.7054 12.148C75.9961 11.7933 75.1981 11.616 74.3114 11.616C73.4501 11.616 72.6394 11.7933 71.8794 12.148C71.1448 12.5027 70.4988 12.9713 69.9414 13.554C69.4094 14.1367 68.9788 14.8207 68.6494 15.606C68.3454 16.3913 68.1934 17.2147 68.1934 18.076ZM64.0514 27.5V0.899998H68.2314V12.414C68.9661 11.1727 69.9414 10.172 71.1574 9.412C72.3988 8.652 73.7794 8.272 75.2994 8.272C76.5914 8.272 77.7948 8.538 78.9094 9.07C80.0241 9.57667 80.9741 10.2733 81.7594 11.16C82.5701 12.0467 83.2034 13.0853 83.6594 14.276C84.1154 15.4667 84.3434 16.7333 84.3434 18.076C84.3434 19.4187 84.1154 20.6853 83.6594 21.876C83.2034 23.0667 82.5701 24.1053 81.7594 24.992C80.9488 25.8787 79.9861 26.588 78.8714 27.12C77.7821 27.6267 76.5914 27.88 75.2994 27.88C73.7794 27.88 72.3988 27.5 71.1574 26.74C69.9414 25.9547 68.9661 24.9413 68.2314 23.7V27.5H64.0514ZM87.2442 8.5C87.3202 7.30933 87.5229 6.28333 87.8522 5.422C88.1815 4.56067 88.5869 3.83867 89.0682 3.256C89.5495 2.648 90.0942 2.17933 90.7022 1.85C91.3102 1.52067 91.9562 1.29267 92.6402 1.166C93.1469 1.014 93.6409 0.937998 94.1222 0.937998C94.7302 0.937998 95.3129 1.03933 95.8702 1.242C96.4529 1.44467 96.9975 1.698 97.5042 2.002V5.574C96.9975 5.09267 96.4909 4.738 95.9842 4.51C95.5029 4.282 95.0342 4.168 94.5782 4.168C94.2489 4.168 93.9195 4.23133 93.5902 4.358C92.8555 4.61133 92.3235 5.118 91.9942 5.878C91.6649 6.61267 91.4749 7.48667 91.4242 8.5H97.5042V11.73H91.3862L91.4622 27.5H87.2822L87.2062 11.73H85.6862V8.5H87.2442ZM100.382 0.899998H104.562V27.5H100.382V0.899998ZM106.95 18C106.95 16.6573 107.203 15.4033 107.71 14.238C108.217 13.0473 108.901 12.0213 109.762 11.16C110.649 10.2733 111.675 9.57667 112.84 9.07C114.031 8.56333 115.297 8.31 116.64 8.31C117.983 8.31 119.237 8.56333 120.402 9.07C121.593 9.57667 122.619 10.2733 123.48 11.16C124.367 12.0213 125.063 13.0473 125.57 14.238C126.077 15.4033 126.33 16.6573 126.33 18C126.33 19.3427 126.077 20.6093 125.57 21.8C125.063 22.9653 124.367 23.9913 123.48 24.878C122.619 25.7393 121.593 26.4233 120.402 26.93C119.237 27.4367 117.983 27.69 116.64 27.69C115.297 27.69 114.031 27.4367 112.84 26.93C111.675 26.4233 110.649 25.7393 109.762 24.878C108.901 23.9913 108.217 22.9653 107.71 21.8C107.203 20.6093 106.95 19.3427 106.95 18ZM111.13 18C111.13 18.76 111.269 19.482 111.548 20.166C111.827 20.8247 112.207 21.4073 112.688 21.914C113.195 22.3953 113.777 22.788 114.436 23.092C115.12 23.3707 115.855 23.51 116.64 23.51C117.4 23.51 118.109 23.3707 118.768 23.092C119.452 22.788 120.035 22.3953 120.516 21.914C121.023 21.4073 121.415 20.8247 121.694 20.166C121.998 19.482 122.15 18.76 122.15 18C122.15 17.2147 121.998 16.4927 121.694 15.834C121.415 15.15 121.023 14.5673 120.516 14.086C120.035 13.5793 119.452 13.1867 118.768 12.908C118.109 12.6293 117.4 12.49 116.64 12.49C115.855 12.49 115.12 12.6293 114.436 12.908C113.777 13.1867 113.195 13.5793 112.688 14.086C112.207 14.5673 111.827 15.15 111.548 15.834C111.269 16.4927 111.13 17.2147 111.13 18ZM130.315 8.5L133.659 23.434L137.003 8.5H141.183L144.527 23.434L147.871 8.5H152.051L147.453 27.5H141.601L139.093 15.53L136.585 27.5H130.733L126.135 8.5H130.315Z" fill="#00133B"></path><path d="M27.4825 25.8734C27.4825 25.5369 17.445 3.60603 17.445 3.41874C16.5926 1.65994 14.963 1.1361 13.8527 1.1361C13.5196 1.1361 12.7415 1.09902 11.8157 1.69702C10.4081 2.63251 11.1862 1.7341 0.0376356 25.8734C0 25.9856 0 26.1358 0 26.248C0 26.4724 0.0366947 26.6597 0.14772 26.884C0.333075 27.2206 0.629455 27.4079 1.03686 27.4079H2.96286C3.82001 27.4079 4.234 27.3556 4.47487 27.2339L7.99192 19.4229C8.24408 18.823 8.38615 18.4674 8.85189 17.415C9.48135 15.9928 10.7036 13.1492 13.8151 6.48762C14.119 7.15882 14.405 7.79104 14.6751 8.38713L14.692 8.42611C18.7698 17.4331 19.0831 18.1338 19.5451 18.9837C19.5724 19.0341 19.6006 19.0845 19.6298 19.1377L19.8293 19.6016L23.3689 27.3014C23.6323 27.3756 24.0256 27.4079 24.704 27.4079H26.7043C27.4081 27.4079 27.6302 26.7338 27.6302 26.3973C27.6302 26.248 27.5935 26.0607 27.4825 25.8734Z" fill="#00133B"></path><path d="M31.7409 8.36244C32.9885 8.36244 34 7.34043 34 6.07979V5.81169C34 4.27726 32.8888 3.52905 31.7409 3.52905C30.593 3.52905 29.4818 4.27726 29.4818 5.81169V6.07979C29.4818 7.34043 30.4933 8.36244 31.7409 8.36244Z" fill="url(#paint0_radial_309_2)"></path><path d="M31.7409 9.61264C30.4933 9.61264 29.4818 10.6346 29.4818 11.8953V25.1253C29.4818 26.6227 30.593 27.4079 31.7409 27.4079C32.8888 27.4079 34 26.6217 34 25.1253V11.8953C34 10.6346 32.9885 9.61264 31.7409 9.61264Z" fill="#00133B"></path><path d="M23.3689 27.3014C23.0716 27.2178 22.9371 27.0828 22.7414 26.8841C20.519 24.1898 17.223 23.067 14.0748 23.067C13.9638 23.067 13.4821 23.1041 12.5929 23.1041C11.7038 23.1411 10.4816 23.4777 8.88863 24.1147C7.2957 24.7507 5.92577 25.6862 4.81458 26.8841C4.72425 27.0362 4.64051 27.1512 4.47491 27.2349L7.99196 19.4239C7.90352 19.634 7.8019 19.8745 7.66641 20.1854C8.59225 19.8488 9.59242 19.5494 10.666 19.3621C11.7028 19.1748 12.5176 19.1006 13.0737 19.1006C13.6665 19.1006 13.9995 19.0636 14.0739 19.0636C16.0366 19.0636 18.1112 19.4001 19.9996 19.9991L19.8293 19.6026L23.3689 27.3014Z" fill="url(#paint1_linear_309_2)"></path><defs><radialGradient id="paint0_radial_309_2" cx="0" cy="0" r="1" gradientUnits="userSpaceOnUse" gradientTransform="translate(31.7408 5.94491) scale(2.32671 2.35098)"><stop stop-color="#00133B"></stop><stop offset="1" stop-color="#00133B"></stop></radialGradient><linearGradient id="paint1_linear_309_2" x1="5.44678" y1="23.1293" x2="20.3608" y2="23.2035" gradientUnits="userSpaceOnUse"><stop stop-color="#00133B"></stop><stop offset="0.5419" stop-color="#00133B"></stop><stop offset="1" stop-color="#00133B"></stop></linearGradient></defs></svg> 